<svg id="visual" viewBox="0 0 900 600" width="900" height="600" xmlns="http://www.w3.org/2000/svg" xmlns:xlink="http://www.w3.org/1999/xlink" version="1.1"><path d="M0 151L21.5 155C43 159 86 167 128.8 174C171.7 181 214.3 187 257.2 180C300 173 343 153 385.8 144C428.7 135 471.3 137 514.2 144C557 151 600 163 642.8 162C685.7 161 728.3 147 771.2 135C814 123 857 113 878.5 108L900 103L900 0L878.5 0C857 0 814 0 771.2 0C728.3 0 685.7 0 642.8 0C600 0 557 0 514.2 0C471.3 0 428.7 0 385.8 0C343 0 300 0 257.2 0C214.3 0 171.7 0 128.8 0C86 0 43 0 21.5 0L0 0Z" fill="#eb7666"></path><path d="M0 223L21.5 230C43 237 86 251 128.8 259C171.7 267 214.3 269 257.2 261C300 253 343 235 385.8 227C428.7 219 471.3 221 514.2 222C557 223 600 223 642.8 222C685.7 221 728.3 219 771.2 214C814 209 857 201 878.5 197L900 193L900 101L878.5 106C857 111 814 121 771.2 133C728.3 145 685.7 159 642.8 160C600 161 557 149 514.2 142C471.3 135 428.7 133 385.8 142C343 151 300 171 257.2 178C214.3 185 171.7 179 128.8 172C86 165 43 157 21.5 153L0 149Z" fill="#e46251"></path><path d="M0 307L21.5 310C43 313 86 319 128.8 323C171.7 327 214.3 329 257.2 327C300 325 343 319 385.8 320C428.7 321 471.3 329 514.2 330C557 331 600 325 642.8 317C685.7 309 728.3 299 771.2 293C814 287 857 285 878.5 284L900 283L900 191L878.5 195C857 199 814 207 771.2 212C728.3 217 685.7 219 642.8 220C600 221 557 221 514.2 220C471.3 219 428.7 217 385.8 225C343 233 300 251 257.2 259C214.3 267 171.7 265 128.8 257C86 249 43 235 21.5 228L0 221Z" fill="#dd4d3c"></path><path d="M0 349L21.5 351C43 353 86 357 128.8 360C171.7 363 214.3 365 257.2 362C300 359 343 351 385.8 353C428.7 355 471.3 367 514.2 369C557 371 600 363 642.8 353C685.7 343 728.3 331 771.2 327C814 323 857 327 878.5 329L900 331L900 281L878.5 282C857 283 814 285 771.2 291C728.3 297 685.7 307 642.8 315C600 323 557 329 514.2 328C471.3 327 428.7 319 385.8 318C343 317 300 323 257.2 325C214.3 327 171.7 325 128.8 321C86 317 43 311 21.5 308L0 305Z" fill="#d43527"></path><path d="M0 469L21.5 474C43 479 86 489 128.8 491C171.7 493 214.3 487 257.2 487C300 487 343 493 385.8 497C428.7 501 471.3 503 514.2 503C557 503 600 501 642.8 497C685.7 493 728.3 487 771.2 486C814 485 857 489 878.5 491L900 493L900 329L878.5 327C857 325 814 321 771.2 325C728.3 329 685.7 341 642.8 351C600 361 557 369 514.2 367C471.3 365 428.7 353 385.8 351C343 349 300 357 257.2 360C214.3 363 171.7 361 128.8 358C86 355 43 351 21.5 349L0 347Z" fill="#c12f25"></path><path d="M0 529L21.5 532C43 535 86 541 128.8 544C171.7 547 214.3 547 257.2 548C300 549 343 551 385.8 550C428.7 549 471.3 545 514.2 544C557 543 600 545 642.8 546C685.7 547 728.3 547 771.2 547C814 547 857 547 878.5 547L900 547L900 491L878.5 489C857 487 814 483 771.2 484C728.3 485 685.7 491 642.8 495C600 499 557 501 514.2 501C471.3 501 428.7 499 385.8 495C343 491 300 485 257.2 485C214.3 485 171.7 491 128.8 489C86 487 43 477 21.5 472L0 467Z" fill="#ae2a23"></path><path d="M0 601L21.5 601C43 601 86 601 128.8 601C171.7 601 214.3 601 257.2 601C300 601 343 601 385.8 601C428.7 601 471.3 601 514.2 601C557 601 600 601 642.8 601C685.7 601 728.3 601 771.2 601C814 601 857 601 878.5 601L900 601L900 545L878.5 545C857 545 814 545 771.2 545C728.3 545 685.7 545 642.8 544C600 543 557 541 514.2 542C471.3 543 428.7 547 385.8 548C343 549 300 547 257.2 546C214.3 545 171.7 545 128.8 542C86 539 43 533 21.5 530L0 527Z" fill="#9c2521"></path></svg>